@startuml
title Framework Agreement definition between the CSP and its Customer ("Simplified illustrations")

class "Customer\nXX" as CustomerXX

note left of CustomerXX : 300 sites, 5 Years

package "CSP" {
  package "Product Catalog (TMFC001)" as CSPCatalog {
    class "SASE Solution by CSP" as SASESolution
    class "Underlay" as Underlay
    class "Cloud" as Cloud
    class "SDWAN" as SDWAN
    class "SSE" as SSE

    SASESolution *-- Underlay
    SASESolution *-- Cloud
    SASESolution *-- SDWAN
    SASESolution *-- SSE

    package "Supplier Catalog View" as SupplierCatalogView {
      class "SSE by P1" as SSEbyP1
      class "SDWAN by Vx" as SDWANbyVx
      class "Cloud by Py" as CloudbyPy
    }

    SSE --> SSEbyP1
    SDWAN --> SDWANbyVx
    Cloud --> CloudbyPy
  }

  package "Agreement (TMFC039)" as CSPAgreement {
    class "Framework Agreement for XX" as FAforXX
    class "ImplemAgreementSpec for Cust." as ImplSpecCust
    class "Framework Agreement Spec for cust" as FASpecCust

    FASpecCust --> ImplSpecCust
    ImplSpecCust --> FAforXX
    note right of ImplSpecCust : (*) See TMFS026

    class "Framework Agreement" as CSPFrameworkAgreement
    class "ImplemAgreementSpec for Supplier" as ImplSpecSupplier
    class "Framework Agreement Spec for Supplier" as FASpecSupplier

    FASpecSupplier --> ImplSpecSupplier
    ImplSpecSupplier --> CSPFrameworkAgreement
    note right of CSPFrameworkAgreement : carries T&C

    ImplSpecSupplier ..> ImplSpecCust : T&C
  }
}

CustomerXX --> FAforXX

package "SSE Provider P1" as SSEProviderP1 <<Simplified illustrations>> {
  package "Product Catalog (TMFC001)" as SupplierCatalog {
    class "SSE" as SupplierSSE
  }
  package "Agreement (TMFC039)" as SupplierAgreement {
    class "Framework Agreement" as SupplierFrameworkAgreement
  }
}

SSEbyP1 ..> SupplierSSE : corresponds to
SupplierCatalogView ..> CSPFrameworkAgreement : result in
SupplierSSE ..> CSPFrameworkAgreement : involves
CSPFrameworkAgreement <..> SupplierFrameworkAgreement : corresponds to

@enduml
